<svg>
<symbol width="14px" height="17px" viewBox="0 0 14 17" version="1.1" xmlns:xlink="http://www.w3.org/1999/xlink" xmlns="http://www.w3.org/2000/svg" id="download">
  <path d="M14 6L10 6L10 0L4 0L4 6L0 6L7 13L14 6ZM0 15L0 17L14 17L14 15L0 15Z" id="Shape" fill-rule="evenodd" stroke="none" />
</symbol>
 <symbol viewBox="0 0 24 24" version="1.1" xmlns:xlink="http://www.w3.org/1999/xlink" xmlns="http://www.w3.org/2000/svg" id="duplicate">
  <g id="Icon-/-icon-add">
    <path d="M0 0L24 0L24 24L0 24L0 0Z" id="Shape" fill="none" fill-rule="evenodd" stroke="none" />
    <path d="M4 5L14 5L14 8L18 4L14 0L14 3L2 3L2 9L4 9L4 5ZM14 15L4 15L4 12L0 16L4 20L4 17L16 17L16 11L14 11L14 15Z" transform="translate(3 2)" id="Shape" fill-rule="evenodd" stroke="none" />
  </g>
</symbol>
<symbol viewBox="0 0 24 24" version="1.1" xmlns:xlink="http://www.w3.org/1999/xlink" xmlns="http://www.w3.org/2000/svg" id="delete">
  <g id="Icon-/-icon-add">
    <path d="M24 0L24 24L0 24L0 0L24 0Z" id="Shape" fill="none" fill-rule="evenodd" stroke="none" />
    <path d="M1 16C1 17.1 1.9 18 3 18L11 18C12.1 18 13 17.1 13 16L13 4L1 4L1 16ZM14 1L10.5 1L9.5 0L4.5 0L3.5 1L0 1L0 3L14 3L14 1Z" transform="translate(5 3)" id="Shape"  fill-rule="evenodd" stroke="none" />
  </g>
</symbol>
</svg>