<?xml version="1.0" encoding="utf-8"?>
<svg width="14px" height="14px" viewBox="0 0 14 14" version="1.1" xmlns:xlink="http://www.w3.org/1999/xlink" xmlns="http://www.w3.org/2000/svg">
  <desc>Created with Lunacy</desc>
  <path d="M7.001 0L6.999 0Q6.90061 0 6.8041 0.0191955Q6.7076 0.038391 6.6167 0.0760443Q6.52579 0.113698 6.44398 0.168362Q6.36217 0.223026 6.2926 0.2926Q6.22303 0.362175 6.16836 0.443985Q6.1137 0.525796 6.07604 0.616699Q6.03839 0.707602 6.01919 0.804105Q6 0.900607 6 0.999L6 6L0.999 6Q0.900607 6 0.804105 6.0192Q0.707602 6.03839 0.616699 6.07604Q0.525796 6.1137 0.443985 6.16836Q0.362175 6.22303 0.2926 6.2926Q0.223026 6.36217 0.168362 6.44398Q0.113698 6.52579 0.0760443 6.6167Q0.038391 6.7076 0.0191955 6.8041Q0 6.90061 0 6.999L0 7.001Q0 7.09939 0.0191955 7.19589Q0.038391 7.2924 0.0760443 7.3833Q0.113698 7.4742 0.168362 7.55601Q0.223026 7.63782 0.2926 7.7074Q0.362175 7.77697 0.443985 7.83164Q0.525796 7.8863 0.616699 7.92395Q0.707602 7.96161 0.804105 7.9808Q0.900607 8 0.999 8L6 8L6 13.001Q6 13.0994 6.01919 13.1959Q6.03839 13.2924 6.07604 13.3833Q6.1137 13.4742 6.16836 13.556Q6.22303 13.6378 6.2926 13.7074Q6.36217 13.777 6.44398 13.8316Q6.52579 13.8863 6.6167 13.924Q6.7076 13.9616 6.8041 13.9808Q6.90061 14 6.999 14L7.001 14Q7.09939 14 7.19589 13.9808Q7.2924 13.9616 7.3833 13.924Q7.4742 13.8863 7.55601 13.8316Q7.63782 13.777 7.7074 13.7074Q7.77697 13.6378 7.83164 13.556Q7.8863 13.4742 7.92395 13.3833Q7.96161 13.2924 7.9808 13.1959Q8 13.0994 8 13.001L8 8L13.001 8Q13.0994 8 13.1959 7.9808Q13.2924 7.96161 13.3833 7.92395Q13.4742 7.8863 13.556 7.83164Q13.6378 7.77697 13.7074 7.7074Q13.777 7.63782 13.8316 7.55601Q13.8863 7.4742 13.924 7.3833Q13.9616 7.2924 13.9808 7.19589Q14 7.09939 14 7.001L14 6.999Q14 6.90061 13.9808 6.8041Q13.9616 6.7076 13.924 6.6167Q13.8863 6.52579 13.8316 6.44398Q13.777 6.36217 13.7074 6.2926Q13.6378 6.22303 13.556 6.16836Q13.4742 6.1137 13.3833 6.07604Q13.2924 6.03839 13.1959 6.0192Q13.0994 6 13.001 6L8 6L8 0.999Q8 0.900607 7.9808 0.804105Q7.96161 0.707602 7.92395 0.616699Q7.8863 0.525796 7.83164 0.443985Q7.77697 0.362175 7.7074 0.2926Q7.63782 0.223026 7.55601 0.168362Q7.4742 0.113698 7.3833 0.0760443Q7.2924 0.038391 7.19589 0.0191955Q7.09939 0 7.001 0Z" id="Shape" fill="#ffffff" fill-rule="evenodd" stroke="none" />
</svg>